<?xml version="1.0" encoding="utf-8" standalone="no"?>
<!DOCTYPE svg PUBLIC "-//W3C//DTD SVG 1.1//EN"
  "http://www.w3.org/Graphics/SVG/1.1/DTD/svg11.dtd">
<svg xmlns:xlink="http://www.w3.org/1999/xlink" width="1080pt" height="288pt" viewBox="0 0 1080 288" xmlns="http://www.w3.org/2000/svg" version="1.1">
 <metadata>
  <rdf:RDF xmlns:dc="http://purl.org/dc/elements/1.1/" xmlns:cc="http://creativecommons.org/ns#" xmlns:rdf="http://www.w3.org/1999/02/22-rdf-syntax-ns#">
   <cc:Work>
    <dc:type rdf:resource="http://purl.org/dc/dcmitype/StillImage"/>
    <dc:date>2024-12-05T08:32:48.547477</dc:date>
    <dc:format>image/svg+xml</dc:format>
    <dc:creator>
     <cc:Agent>
      <dc:title>Matplotlib v3.9.2, https://matplotlib.org/</dc:title>
     </cc:Agent>
    </dc:creator>
   </cc:Work>
  </rdf:RDF>
 </metadata>
 <defs>
  <style type="text/css">*{stroke-linejoin: round; stroke-linecap: butt}</style>
 </defs>
 <g id="figure_1">
  <g id="patch_1">
   <path d="M 0 288 
L 1080 288 
L 1080 0 
L 0 0 
z
" style="fill: #f0f0f0"/>
  </g>
  <g id="axes_1">
   <g id="patch_2">
    <path d="M 34.88 255.46 
L 1067.04 255.46 
L 1067.04 39.6 
L 34.88 39.6 
z
" style="fill: #ffffff"/>
   </g>
   <g id="matplotlib.axis_1">
    <g id="xtick_1">
     <g id="line2d_1">
      <defs>
       <path id="m0111dce306" d="M 0 0 
L 0 6 
" style="stroke: #262626; stroke-width: 1.25"/>
      </defs>
      <g>
       <use xlink:href="#m0111dce306" x="206.906667" y="255.46" style="fill: #262626; stroke: #262626; stroke-width: 1.25"/>
      </g>
     </g>
     <g id="text_1">
      <!-- Inches -->
      <g style="fill: #262626" transform="translate(190.703151 272.833594) scale(0.11 -0.11)">
       <defs>
        <path id="ArialMT-49" d="M 597 0 
L 597 4581 
L 1203 4581 
L 1203 0 
L 597 0 
z
" transform="scale(0.015625)"/>
        <path id="ArialMT-6e" d="M 422 0 
L 422 3319 
L 928 3319 
L 928 2847 
Q 1294 3394 1984 3394 
Q 2284 3394 2536 3286 
Q 2788 3178 2913 3003 
Q 3038 2828 3088 2588 
Q 3119 2431 3119 2041 
L 3119 0 
L 2556 0 
L 2556 2019 
Q 2556 2363 2490 2533 
Q 2425 2703 2258 2804 
Q 2091 2906 1866 2906 
Q 1506 2906 1245 2678 
Q 984 2450 984 1813 
L 984 0 
L 422 0 
z
" transform="scale(0.015625)"/>
        <path id="ArialMT-63" d="M 2588 1216 
L 3141 1144 
Q 3050 572 2676 248 
Q 2303 -75 1759 -75 
Q 1078 -75 664 370 
Q 250 816 250 1647 
Q 250 2184 428 2587 
Q 606 2991 970 3192 
Q 1334 3394 1763 3394 
Q 2303 3394 2647 3120 
Q 2991 2847 3088 2344 
L 2541 2259 
Q 2463 2594 2264 2762 
Q 2066 2931 1784 2931 
Q 1359 2931 1093 2626 
Q 828 2322 828 1663 
Q 828 994 1084 691 
Q 1341 388 1753 388 
Q 2084 388 2306 591 
Q 2528 794 2588 1216 
z
" transform="scale(0.015625)"/>
        <path id="ArialMT-68" d="M 422 0 
L 422 4581 
L 984 4581 
L 984 2938 
Q 1378 3394 1978 3394 
Q 2347 3394 2619 3248 
Q 2891 3103 3008 2847 
Q 3125 2591 3125 2103 
L 3125 0 
L 2563 0 
L 2563 2103 
Q 2563 2525 2380 2717 
Q 2197 2909 1863 2909 
Q 1613 2909 1392 2779 
Q 1172 2650 1078 2428 
Q 984 2206 984 1816 
L 984 0 
L 422 0 
z
" transform="scale(0.015625)"/>
        <path id="ArialMT-65" d="M 2694 1069 
L 3275 997 
Q 3138 488 2766 206 
Q 2394 -75 1816 -75 
Q 1088 -75 661 373 
Q 234 822 234 1631 
Q 234 2469 665 2931 
Q 1097 3394 1784 3394 
Q 2450 3394 2872 2941 
Q 3294 2488 3294 1666 
Q 3294 1616 3291 1516 
L 816 1516 
Q 847 969 1125 678 
Q 1403 388 1819 388 
Q 2128 388 2347 550 
Q 2566 713 2694 1069 
z
M 847 1978 
L 2700 1978 
Q 2663 2397 2488 2606 
Q 2219 2931 1791 2931 
Q 1403 2931 1139 2672 
Q 875 2413 847 1978 
z
" transform="scale(0.015625)"/>
        <path id="ArialMT-73" d="M 197 991 
L 753 1078 
Q 800 744 1014 566 
Q 1228 388 1613 388 
Q 2000 388 2187 545 
Q 2375 703 2375 916 
Q 2375 1106 2209 1216 
Q 2094 1291 1634 1406 
Q 1016 1563 777 1677 
Q 538 1791 414 1992 
Q 291 2194 291 2438 
Q 291 2659 392 2848 
Q 494 3038 669 3163 
Q 800 3259 1026 3326 
Q 1253 3394 1513 3394 
Q 1903 3394 2198 3281 
Q 2494 3169 2634 2976 
Q 2775 2784 2828 2463 
L 2278 2388 
Q 2241 2644 2061 2787 
Q 1881 2931 1553 2931 
Q 1166 2931 1000 2803 
Q 834 2675 834 2503 
Q 834 2394 903 2306 
Q 972 2216 1119 2156 
Q 1203 2125 1616 2013 
Q 2213 1853 2448 1751 
Q 2684 1650 2818 1456 
Q 2953 1263 2953 975 
Q 2953 694 2789 445 
Q 2625 197 2315 61 
Q 2006 -75 1616 -75 
Q 969 -75 630 194 
Q 291 463 197 991 
z
" transform="scale(0.015625)"/>
       </defs>
       <use xlink:href="#ArialMT-49"/>
       <use xlink:href="#ArialMT-6e" x="27.783203"/>
       <use xlink:href="#ArialMT-63" x="83.398438"/>
       <use xlink:href="#ArialMT-68" x="133.398438"/>
       <use xlink:href="#ArialMT-65" x="189.013672"/>
       <use xlink:href="#ArialMT-73" x="244.628906"/>
      </g>
     </g>
    </g>
    <g id="xtick_2">
     <g id="line2d_2">
      <g>
       <use xlink:href="#m0111dce306" x="550.96" y="255.46" style="fill: #262626; stroke: #262626; stroke-width: 1.25"/>
      </g>
     </g>
     <g id="text_2">
      <!-- Weight -->
      <g style="fill: #262626" transform="translate(533.939219 272.833594) scale(0.11 -0.11)">
       <defs>
        <path id="ArialMT-57" d="M 1294 0 
L 78 4581 
L 700 4581 
L 1397 1578 
Q 1509 1106 1591 641 
Q 1766 1375 1797 1488 
L 2669 4581 
L 3400 4581 
L 4056 2263 
Q 4303 1400 4413 641 
Q 4500 1075 4641 1638 
L 5359 4581 
L 5969 4581 
L 4713 0 
L 4128 0 
L 3163 3491 
Q 3041 3928 3019 4028 
Q 2947 3713 2884 3491 
L 1913 0 
L 1294 0 
z
" transform="scale(0.015625)"/>
        <path id="ArialMT-69" d="M 425 3934 
L 425 4581 
L 988 4581 
L 988 3934 
L 425 3934 
z
M 425 0 
L 425 3319 
L 988 3319 
L 988 0 
L 425 0 
z
" transform="scale(0.015625)"/>
        <path id="ArialMT-67" d="M 319 -275 
L 866 -356 
Q 900 -609 1056 -725 
Q 1266 -881 1628 -881 
Q 2019 -881 2231 -725 
Q 2444 -569 2519 -288 
Q 2563 -116 2559 434 
Q 2191 0 1641 0 
Q 956 0 581 494 
Q 206 988 206 1678 
Q 206 2153 378 2554 
Q 550 2956 876 3175 
Q 1203 3394 1644 3394 
Q 2231 3394 2613 2919 
L 2613 3319 
L 3131 3319 
L 3131 450 
Q 3131 -325 2973 -648 
Q 2816 -972 2473 -1159 
Q 2131 -1347 1631 -1347 
Q 1038 -1347 672 -1080 
Q 306 -813 319 -275 
z
M 784 1719 
Q 784 1066 1043 766 
Q 1303 466 1694 466 
Q 2081 466 2343 764 
Q 2606 1063 2606 1700 
Q 2606 2309 2336 2618 
Q 2066 2928 1684 2928 
Q 1309 2928 1046 2623 
Q 784 2319 784 1719 
z
" transform="scale(0.015625)"/>
        <path id="ArialMT-74" d="M 1650 503 
L 1731 6 
Q 1494 -44 1306 -44 
Q 1000 -44 831 53 
Q 663 150 594 308 
Q 525 466 525 972 
L 525 2881 
L 113 2881 
L 113 3319 
L 525 3319 
L 525 4141 
L 1084 4478 
L 1084 3319 
L 1650 3319 
L 1650 2881 
L 1084 2881 
L 1084 941 
Q 1084 700 1114 631 
Q 1144 563 1211 522 
Q 1278 481 1403 481 
Q 1497 481 1650 503 
z
" transform="scale(0.015625)"/>
       </defs>
       <use xlink:href="#ArialMT-57"/>
       <use xlink:href="#ArialMT-65" x="92.634766"/>
       <use xlink:href="#ArialMT-69" x="148.25"/>
       <use xlink:href="#ArialMT-67" x="170.466797"/>
       <use xlink:href="#ArialMT-68" x="226.082031"/>
       <use xlink:href="#ArialMT-74" x="281.697266"/>
      </g>
     </g>
    </g>
    <g id="xtick_3">
     <g id="line2d_3">
      <g>
       <use xlink:href="#m0111dce306" x="895.013333" y="255.46" style="fill: #262626; stroke: #262626; stroke-width: 1.25"/>
      </g>
     </g>
     <g id="text_3">
      <!-- Price -->
      <g style="fill: #262626" transform="translate(882.482786 272.833594) scale(0.11 -0.11)">
       <defs>
        <path id="ArialMT-50" d="M 494 0 
L 494 4581 
L 2222 4581 
Q 2678 4581 2919 4538 
Q 3256 4481 3484 4323 
Q 3713 4166 3852 3881 
Q 3991 3597 3991 3256 
Q 3991 2672 3619 2267 
Q 3247 1863 2275 1863 
L 1100 1863 
L 1100 0 
L 494 0 
z
M 1100 2403 
L 2284 2403 
Q 2872 2403 3119 2622 
Q 3366 2841 3366 3238 
Q 3366 3525 3220 3729 
Q 3075 3934 2838 4000 
Q 2684 4041 2272 4041 
L 1100 4041 
L 1100 2403 
z
" transform="scale(0.015625)"/>
        <path id="ArialMT-72" d="M 416 0 
L 416 3319 
L 922 3319 
L 922 2816 
Q 1116 3169 1280 3281 
Q 1444 3394 1641 3394 
Q 1925 3394 2219 3213 
L 2025 2691 
Q 1819 2813 1613 2813 
Q 1428 2813 1281 2702 
Q 1134 2591 1072 2394 
Q 978 2094 978 1738 
L 978 0 
L 416 0 
z
" transform="scale(0.015625)"/>
       </defs>
       <use xlink:href="#ArialMT-50"/>
       <use xlink:href="#ArialMT-72" x="66.699219"/>
       <use xlink:href="#ArialMT-69" x="100"/>
       <use xlink:href="#ArialMT-63" x="122.216797"/>
       <use xlink:href="#ArialMT-65" x="172.216797"/>
      </g>
     </g>
    </g>
   </g>
   <g id="matplotlib.axis_2">
    <g id="ytick_1">
     <g id="line2d_4">
      <defs>
       <path id="m83918e12e4" d="M 0 0 
L -6 0 
" style="stroke: #262626; stroke-width: 1.25"/>
      </defs>
      <g>
       <use xlink:href="#m83918e12e4" x="34.88" y="226.249973" style="fill: #262626; stroke: #262626; stroke-width: 1.25"/>
      </g>
     </g>
     <g id="text_4">
      <!-- −2 -->
      <g style="fill: #262626" transform="translate(12.838281 230.18677) scale(0.11 -0.11)">
       <defs>
        <path id="ArialMT-2212" d="M 3381 1997 
L 356 1997 
L 356 2522 
L 3381 2522 
L 3381 1997 
z
" transform="scale(0.015625)"/>
        <path id="ArialMT-32" d="M 3222 541 
L 3222 0 
L 194 0 
Q 188 203 259 391 
Q 375 700 629 1000 
Q 884 1300 1366 1694 
Q 2113 2306 2375 2664 
Q 2638 3022 2638 3341 
Q 2638 3675 2398 3904 
Q 2159 4134 1775 4134 
Q 1369 4134 1125 3890 
Q 881 3647 878 3216 
L 300 3275 
Q 359 3922 746 4261 
Q 1134 4600 1788 4600 
Q 2447 4600 2831 4234 
Q 3216 3869 3216 3328 
Q 3216 3053 3103 2787 
Q 2991 2522 2730 2228 
Q 2469 1934 1863 1422 
Q 1356 997 1212 845 
Q 1069 694 975 541 
L 3222 541 
z
" transform="scale(0.015625)"/>
       </defs>
       <use xlink:href="#ArialMT-2212"/>
       <use xlink:href="#ArialMT-32" x="58.398438"/>
      </g>
     </g>
    </g>
    <g id="ytick_2">
     <g id="line2d_5">
      <g>
       <use xlink:href="#m83918e12e4" x="34.88" y="191.411419" style="fill: #262626; stroke: #262626; stroke-width: 1.25"/>
      </g>
     </g>
     <g id="text_5">
      <!-- 0 -->
      <g style="fill: #262626" transform="translate(19.262969 195.348216) scale(0.11 -0.11)">
       <defs>
        <path id="ArialMT-30" d="M 266 2259 
Q 266 3072 433 3567 
Q 600 4063 929 4331 
Q 1259 4600 1759 4600 
Q 2128 4600 2406 4451 
Q 2684 4303 2865 4023 
Q 3047 3744 3150 3342 
Q 3253 2941 3253 2259 
Q 3253 1453 3087 958 
Q 2922 463 2592 192 
Q 2263 -78 1759 -78 
Q 1097 -78 719 397 
Q 266 969 266 2259 
z
M 844 2259 
Q 844 1131 1108 757 
Q 1372 384 1759 384 
Q 2147 384 2411 759 
Q 2675 1134 2675 2259 
Q 2675 3391 2411 3762 
Q 2147 4134 1753 4134 
Q 1366 4134 1134 3806 
Q 844 3388 844 2259 
z
" transform="scale(0.015625)"/>
       </defs>
       <use xlink:href="#ArialMT-30"/>
      </g>
     </g>
    </g>
    <g id="ytick_3">
     <g id="line2d_6">
      <g>
       <use xlink:href="#m83918e12e4" x="34.88" y="156.572866" style="fill: #262626; stroke: #262626; stroke-width: 1.25"/>
      </g>
     </g>
     <g id="text_6">
      <!-- 2 -->
      <g style="fill: #262626" transform="translate(19.262969 160.509663) scale(0.11 -0.11)">
       <use xlink:href="#ArialMT-32"/>
      </g>
     </g>
    </g>
    <g id="ytick_4">
     <g id="line2d_7">
      <g>
       <use xlink:href="#m83918e12e4" x="34.88" y="121.734312" style="fill: #262626; stroke: #262626; stroke-width: 1.25"/>
      </g>
     </g>
     <g id="text_7">
      <!-- 4 -->
      <g style="fill: #262626" transform="translate(19.262969 125.671109) scale(0.11 -0.11)">
       <defs>
        <path id="ArialMT-34" d="M 2069 0 
L 2069 1097 
L 81 1097 
L 81 1613 
L 2172 4581 
L 2631 4581 
L 2631 1613 
L 3250 1613 
L 3250 1097 
L 2631 1097 
L 2631 0 
L 2069 0 
z
M 2069 1613 
L 2069 3678 
L 634 1613 
L 2069 1613 
z
" transform="scale(0.015625)"/>
       </defs>
       <use xlink:href="#ArialMT-34"/>
      </g>
     </g>
    </g>
    <g id="ytick_5">
     <g id="line2d_8">
      <g>
       <use xlink:href="#m83918e12e4" x="34.88" y="86.895759" style="fill: #262626; stroke: #262626; stroke-width: 1.25"/>
      </g>
     </g>
     <g id="text_8">
      <!-- 6 -->
      <g style="fill: #262626" transform="translate(19.262969 90.832556) scale(0.11 -0.11)">
       <defs>
        <path id="ArialMT-36" d="M 3184 3459 
L 2625 3416 
Q 2550 3747 2413 3897 
Q 2184 4138 1850 4138 
Q 1581 4138 1378 3988 
Q 1113 3794 959 3422 
Q 806 3050 800 2363 
Q 1003 2672 1297 2822 
Q 1591 2972 1913 2972 
Q 2475 2972 2870 2558 
Q 3266 2144 3266 1488 
Q 3266 1056 3080 686 
Q 2894 316 2569 119 
Q 2244 -78 1831 -78 
Q 1128 -78 684 439 
Q 241 956 241 2144 
Q 241 3472 731 4075 
Q 1159 4600 1884 4600 
Q 2425 4600 2770 4297 
Q 3116 3994 3184 3459 
z
M 888 1484 
Q 888 1194 1011 928 
Q 1134 663 1356 523 
Q 1578 384 1822 384 
Q 2178 384 2434 671 
Q 2691 959 2691 1453 
Q 2691 1928 2437 2201 
Q 2184 2475 1800 2475 
Q 1419 2475 1153 2201 
Q 888 1928 888 1484 
z
" transform="scale(0.015625)"/>
       </defs>
       <use xlink:href="#ArialMT-36"/>
      </g>
     </g>
    </g>
    <g id="ytick_6">
     <g id="line2d_9">
      <g>
       <use xlink:href="#m83918e12e4" x="34.88" y="52.057205" style="fill: #262626; stroke: #262626; stroke-width: 1.25"/>
      </g>
     </g>
     <g id="text_9">
      <!-- 8 -->
      <g style="fill: #262626" transform="translate(19.262969 55.994002) scale(0.11 -0.11)">
       <defs>
        <path id="ArialMT-38" d="M 1131 2484 
Q 781 2613 612 2850 
Q 444 3088 444 3419 
Q 444 3919 803 4259 
Q 1163 4600 1759 4600 
Q 2359 4600 2725 4251 
Q 3091 3903 3091 3403 
Q 3091 3084 2923 2848 
Q 2756 2613 2416 2484 
Q 2838 2347 3058 2040 
Q 3278 1734 3278 1309 
Q 3278 722 2862 322 
Q 2447 -78 1769 -78 
Q 1091 -78 675 323 
Q 259 725 259 1325 
Q 259 1772 486 2073 
Q 713 2375 1131 2484 
z
M 1019 3438 
Q 1019 3113 1228 2906 
Q 1438 2700 1772 2700 
Q 2097 2700 2305 2904 
Q 2513 3109 2513 3406 
Q 2513 3716 2298 3927 
Q 2084 4138 1766 4138 
Q 1444 4138 1231 3931 
Q 1019 3725 1019 3438 
z
M 838 1322 
Q 838 1081 952 856 
Q 1066 631 1291 507 
Q 1516 384 1775 384 
Q 2178 384 2440 643 
Q 2703 903 2703 1303 
Q 2703 1709 2433 1975 
Q 2163 2241 1756 2241 
Q 1359 2241 1098 1978 
Q 838 1716 838 1322 
z
" transform="scale(0.015625)"/>
       </defs>
       <use xlink:href="#ArialMT-38"/>
      </g>
     </g>
    </g>
   </g>
   <g id="PolyCollection_1">
    <defs>
     <path id="m4d17007211" d="M 206.98273 -42.351818 
L 206.830604 -42.351818 
L 206.77977 -43.305418 
L 206.703433 -44.259018 
L 206.593845 -45.212619 
L 206.443286 -46.166219 
L 206.244993 -47.119819 
L 205.993979 -48.073419 
L 205.687331 -49.027019 
L 205.323667 -49.980619 
L 204.901686 -50.934219 
L 204.418222 -51.88782 
L 203.866777 -52.84142 
L 203.237845 -53.79502 
L 202.522087 -54.74862 
L 201.716426 -55.70222 
L 200.831475 -56.65582 
L 199.897037 -57.60942 
L 198.961582 -58.563021 
L 198.082458 -59.516621 
L 197.306373 -60.470221 
L 196.643736 -61.423821 
L 196.04446 -62.377421 
L 195.385014 -63.331021 
L 194.475685 -64.284621 
L 193.092663 -65.238221 
L 191.032285 -66.191822 
L 188.176359 -67.145422 
L 184.550327 -68.099022 
L 180.353136 -69.052622 
L 175.941628 -70.006222 
L 171.763793 -70.959822 
L 168.2523 -71.913422 
L 165.706762 -72.867023 
L 164.20307 -73.820623 
L 163.564896 -74.774223 
L 163.414877 -75.727823 
L 163.296 -76.681423 
L 162.827135 -77.635023 
L 161.841308 -78.588623 
L 160.458221 -79.542224 
L 159.06376 -80.495824 
L 158.201277 -81.449424 
L 158.410326 -82.403024 
L 160.066239 -83.356624 
L 163.271821 -84.310224 
L 167.83182 -85.263824 
L 173.31051 -86.217424 
L 179.145128 -87.171025 
L 184.772974 -88.124625 
L 189.731794 -89.078225 
L 193.707838 -90.031825 
L 196.526118 -90.985425 
L 198.094844 -91.939025 
L 198.326653 -92.892625 
L 197.06297 -93.846226 
L 194.027101 -94.799826 
L 188.828089 -95.753426 
L 181.030242 -96.707026 
L 170.289828 -97.660626 
L 156.539376 -98.614226 
L 140.174649 -99.567826 
L 122.179253 -100.521427 
L 104.120146 -101.475027 
L 87.973411 -102.428627 
L 75.791619 -103.382227 
L 69.285333 -104.335827 
L 69.435638 -105.289427 
L 76.258578 -106.243027 
L 88.799151 -107.196627 
L 105.357105 -108.150228 
L 123.870516 -109.103828 
L 142.337594 -110.057428 
L 159.158653 -111.011028 
L 173.322869 -111.964628 
L 184.425291 -112.918228 
L 192.552198 -113.871828 
L 198.099788 -114.825429 
L 201.589834 -115.779029 
L 203.525633 -116.732629 
L 204.306055 -117.686229 
L 204.195383 -118.639829 
L 203.336201 -119.593429 
L 201.790205 -120.547029 
L 199.593171 -121.50063 
L 196.811647 -122.45423 
L 193.589046 -123.40783 
L 190.169015 -124.36143 
L 186.886762 -125.31503 
L 184.12612 -126.26863 
L 182.250517 -127.22223 
L 181.52612 -128.17583 
L 182.060454 -129.129431 
L 183.776472 -130.083031 
L 186.430926 -131.036631 
L 189.671075 -131.990231 
L 193.111495 -132.943831 
L 196.408037 -133.897431 
L 199.30979 -134.851031 
L 201.67996 -135.804632 
L 203.487606 -136.758232 
L 210.325728 -136.758232 
L 210.325728 -136.758232 
L 212.133374 -135.804632 
L 214.503543 -134.851031 
L 217.405297 -133.897431 
L 220.701838 -132.943831 
L 224.142259 -131.990231 
L 227.382407 -131.036631 
L 230.036862 -130.083031 
L 231.752879 -129.129431 
L 232.287213 -128.17583 
L 231.562817 -127.22223 
L 229.687213 -126.26863 
L 226.926571 -125.31503 
L 223.644319 -124.36143 
L 220.224288 -123.40783 
L 217.001687 -122.45423 
L 214.220162 -121.50063 
L 212.023129 -120.547029 
L 210.477133 -119.593429 
L 209.61795 -118.639829 
L 209.507278 -117.686229 
L 210.287701 -116.732629 
L 212.2235 -115.779029 
L 215.713545 -114.825429 
L 221.261135 -113.871828 
L 229.388042 -112.918228 
L 240.490464 -111.964628 
L 254.65468 -111.011028 
L 271.475739 -110.057428 
L 289.942817 -109.103828 
L 308.456229 -108.150228 
L 325.014182 -107.196627 
L 337.554755 -106.243027 
L 344.377695 -105.289427 
L 344.528 -104.335827 
L 338.021715 -103.382227 
L 325.839923 -102.428627 
L 309.693188 -101.475027 
L 291.63408 -100.521427 
L 273.638684 -99.567826 
L 257.273958 -98.614226 
L 243.523506 -97.660626 
L 232.783091 -96.707026 
L 224.985245 -95.753426 
L 219.786233 -94.799826 
L 216.750363 -93.846226 
L 215.48668 -92.892625 
L 215.71849 -91.939025 
L 217.287215 -90.985425 
L 220.105495 -90.031825 
L 224.08154 -89.078225 
L 229.04036 -88.124625 
L 234.668206 -87.171025 
L 240.502823 -86.217424 
L 245.981514 -85.263824 
L 250.541512 -84.310224 
L 253.747094 -83.356624 
L 255.403007 -82.403024 
L 255.612056 -81.449424 
L 254.749573 -80.495824 
L 253.355112 -79.542224 
L 251.972025 -78.588623 
L 250.986198 -77.635023 
L 250.517333 -76.681423 
L 250.398456 -75.727823 
L 250.248437 -74.774223 
L 249.610263 -73.820623 
L 248.106572 -72.867023 
L 245.561033 -71.913422 
L 242.04954 -70.959822 
L 237.871705 -70.006222 
L 233.460197 -69.052622 
L 229.263007 -68.099022 
L 225.636974 -67.145422 
L 222.781049 -66.191822 
L 220.720671 -65.238221 
L 219.337649 -64.284621 
L 218.42832 -63.331021 
L 217.768873 -62.377421 
L 217.169598 -61.423821 
L 216.506961 -60.470221 
L 215.730875 -59.516621 
L 214.851751 -58.563021 
L 213.916296 -57.60942 
L 212.981859 -56.65582 
L 212.096908 -55.70222 
L 211.291246 -54.74862 
L 210.575488 -53.79502 
L 209.946556 -52.84142 
L 209.395111 -51.88782 
L 208.911647 -50.934219 
L 208.489666 -49.980619 
L 208.126002 -49.027019 
L 207.819354 -48.073419 
L 207.56834 -47.119819 
L 207.370048 -46.166219 
L 207.219488 -45.212619 
L 207.1099 -44.259018 
L 207.033564 -43.305418 
L 206.98273 -42.351818 
z
" style="stroke: #484848; stroke-width: 3"/>
    </defs>
    <g clip-path="url(#p76c0f88900)">
     <use xlink:href="#m4d17007211" x="0" y="288" style="fill: #cb3335; stroke: #484848; stroke-width: 3"/>
    </g>
   </g>
   <g id="PolyCollection_2">
    <defs>
     <path id="m78d8ca20d3" d="M 551.030168 -45.203909 
L 550.889832 -45.203909 
L 550.836293 -46.342647 
L 550.752909 -47.481385 
L 550.628985 -48.620124 
L 550.451608 -49.758862 
L 550.204681 -50.8976 
L 549.867451 -52.036338 
L 549.41292 -53.175077 
L 548.806683 -54.313815 
L 548.006221 -55.452553 
L 546.959795 -56.591291 
L 545.603531 -57.73003 
L 543.856022 -58.868768 
L 541.612156 -60.007506 
L 538.741004 -61.146244 
L 535.094376 -62.284983 
L 530.531126 -63.423721 
L 524.957106 -64.562459 
L 518.373294 -65.701197 
L 510.918157 -66.839936 
L 502.887734 -67.978674 
L 494.720306 -69.117412 
L 486.942103 -70.25615 
L 480.083702 -71.394889 
L 474.588539 -72.533627 
L 470.739174 -73.672365 
L 468.620839 -74.811103 
L 468.127984 -75.949842 
L 469.005363 -77.08858 
L 470.907196 -78.227318 
L 473.457514 -79.366056 
L 476.2985 -80.504794 
L 479.117678 -81.643533 
L 481.649482 -82.782271 
L 483.654801 -83.921009 
L 484.893455 -85.059747 
L 485.112606 -86.198486 
L 484.069922 -87.337224 
L 481.591183 -88.475962 
L 477.637519 -89.6147 
L 472.344271 -90.753439 
L 466.003209 -91.892177 
L 458.98924 -93.030915 
L 451.664678 -94.169653 
L 444.309482 -95.308392 
L 437.115285 -96.44713 
L 430.249478 -97.585868 
L 423.957887 -98.724606 
L 418.648107 -99.863345 
L 414.894809 -101.002083 
L 413.338667 -102.140821 
L 414.502764 -103.279559 
L 418.599104 -104.418298 
L 425.413258 -105.557036 
L 434.323385 -106.695774 
L 444.446468 -107.834512 
L 454.847315 -108.973251 
L 464.727691 -110.111989 
L 473.538843 -111.250727 
L 481.007131 -112.389465 
L 487.0983 -113.528204 
L 491.955327 -114.666942 
L 495.833612 -115.80568 
L 499.042099 -116.944418 
L 501.891286 -118.083156 
L 504.649503 -119.221895 
L 507.511066 -120.360633 
L 510.579645 -121.499371 
L 513.867609 -122.638109 
L 517.310005 -123.776848 
L 520.790395 -124.915586 
L 524.173635 -126.054324 
L 527.337489 -127.193062 
L 530.193635 -128.331801 
L 532.692621 -129.470539 
L 534.815762 -130.609277 
L 536.564054 -131.748015 
L 537.953862 -132.886754 
L 539.021266 -134.025492 
L 539.827952 -135.16423 
L 540.458845 -136.302968 
L 541.007518 -137.441707 
L 541.554563 -138.580445 
L 542.149558 -139.719183 
L 542.805315 -140.857921 
L 543.505909 -141.99666 
L 544.22299 -143.135398 
L 544.931836 -144.274136 
L 545.620445 -145.412874 
L 546.289449 -146.551613 
L 546.94511 -147.690351 
L 547.590313 -148.829089 
L 548.218401 -149.967827 
L 548.812564 -151.106566 
L 549.35048 -152.245304 
L 549.811495 -153.384042 
L 550.182933 -154.52278 
L 550.463099 -155.661519 
L 550.66046 -156.800257 
L 550.790125 -157.938995 
L 551.129875 -157.938995 
L 551.129875 -157.938995 
L 551.25954 -156.800257 
L 551.456901 -155.661519 
L 551.737067 -154.52278 
L 552.108505 -153.384042 
L 552.56952 -152.245304 
L 553.107436 -151.106566 
L 553.701599 -149.967827 
L 554.329687 -148.829089 
L 554.97489 -147.690351 
L 555.630551 -146.551613 
L 556.299555 -145.412874 
L 556.988164 -144.274136 
L 557.69701 -143.135398 
L 558.414091 -141.99666 
L 559.114685 -140.857921 
L 559.770442 -139.719183 
L 560.365437 -138.580445 
L 560.912482 -137.441707 
L 561.461155 -136.302968 
L 562.092048 -135.16423 
L 562.898734 -134.025492 
L 563.966138 -132.886754 
L 565.355946 -131.748015 
L 567.104238 -130.609277 
L 569.227379 -129.470539 
L 571.726365 -128.331801 
L 574.582511 -127.193062 
L 577.746365 -126.054324 
L 581.129605 -124.915586 
L 584.609995 -123.776848 
L 588.052391 -122.638109 
L 591.340355 -121.499371 
L 594.408934 -120.360633 
L 597.270497 -119.221895 
L 600.028714 -118.083156 
L 602.877901 -116.944418 
L 606.086388 -115.80568 
L 609.964673 -114.666942 
L 614.8217 -113.528204 
L 620.912869 -112.389465 
L 628.381157 -111.250727 
L 637.192309 -110.111989 
L 647.072685 -108.973251 
L 657.473532 -107.834512 
L 667.596615 -106.695774 
L 676.506742 -105.557036 
L 683.320896 -104.418298 
L 687.417236 -103.279559 
L 688.581333 -102.140821 
L 687.025191 -101.002083 
L 683.271893 -99.863345 
L 677.962113 -98.724606 
L 671.670522 -97.585868 
L 664.804715 -96.44713 
L 657.610518 -95.308392 
L 650.255322 -94.169653 
L 642.93076 -93.030915 
L 635.916791 -91.892177 
L 629.575729 -90.753439 
L 624.282481 -89.6147 
L 620.328817 -88.475962 
L 617.850078 -87.337224 
L 616.807394 -86.198486 
L 617.026545 -85.059747 
L 618.265199 -83.921009 
L 620.270518 -82.782271 
L 622.802322 -81.643533 
L 625.6215 -80.504794 
L 628.462486 -79.366056 
L 631.012804 -78.227318 
L 632.914637 -77.08858 
L 633.792016 -75.949842 
L 633.299161 -74.811103 
L 631.180826 -73.672365 
L 627.331461 -72.533627 
L 621.836298 -71.394889 
L 614.977897 -70.25615 
L 607.199694 -69.117412 
L 599.032266 -67.978674 
L 591.001843 -66.839936 
L 583.546706 -65.701197 
L 576.962894 -64.562459 
L 571.388874 -63.423721 
L 566.825624 -62.284983 
L 563.178996 -61.146244 
L 560.307844 -60.007506 
L 558.063978 -58.868768 
L 556.316469 -57.73003 
L 554.960205 -56.591291 
L 553.913779 -55.452553 
L 553.113317 -54.313815 
L 552.50708 -53.175077 
L 552.052549 -52.036338 
L 551.715319 -50.8976 
L 551.468392 -49.758862 
L 551.291015 -48.620124 
L 551.167091 -47.481385 
L 551.083707 -46.342647 
L 551.030168 -45.203909 
z
" style="stroke: #484848; stroke-width: 3"/>
    </defs>
    <g clip-path="url(#p76c0f88900)">
     <use xlink:href="#m78d8ca20d3" x="0" y="288" style="fill: #477ca8; stroke: #484848; stroke-width: 3"/>
    </g>
   </g>
   <g id="PolyCollection_3">
    <defs>
     <path id="mc109930098" d="M 896.527283 -64.028349 
L 893.499384 -64.028349 
L 891.030277 -65.79158 
L 885.897871 -67.554811 
L 876.749353 -69.318041 
L 862.728149 -71.081272 
L 844.204476 -72.844503 
L 823.06704 -74.607733 
L 802.21156 -76.370964 
L 784.423875 -78.134194 
L 771.337536 -79.897425 
L 763.09807 -81.660656 
L 758.823761 -83.423886 
L 757.392 -85.187117 
L 757.965777 -86.950348 
L 760.036676 -88.713578 
L 763.209629 -90.476809 
L 767.098315 -92.240039 
L 771.471335 -94.00327 
L 776.438665 -95.766501 
L 782.361747 -97.529731 
L 789.46739 -99.292962 
L 797.530094 -101.056193 
L 805.952809 -102.819423 
L 814.120452 -104.582654 
L 821.614483 -106.345885 
L 828.134215 -108.109115 
L 833.395123 -109.872346 
L 837.282883 -111.635576 
L 840.139558 -113.398807 
L 842.792262 -115.162038 
L 846.155321 -116.925268 
L 850.680671 -118.688499 
L 856.097005 -120.45173 
L 861.622251 -122.21496 
L 866.453726 -123.978191 
L 870.17958 -125.741421 
L 872.883903 -127.504652 
L 874.967336 -129.267883 
L 876.869921 -131.031113 
L 878.871815 -132.794344 
L 881.029652 -134.557575 
L 883.216602 -136.320805 
L 885.219923 -138.084036 
L 886.859323 -139.847266 
L 888.082618 -141.610497 
L 888.989739 -143.373728 
L 889.765931 -145.136958 
L 890.565986 -146.900189 
L 891.43037 -148.66342 
L 892.286969 -150.42665 
L 893.022917 -152.189881 
L 893.564209 -153.953112 
L 893.91053 -155.716342 
L 894.118111 -157.479573 
L 894.25853 -159.242803 
L 894.382223 -161.006034 
L 894.4993 -162.769265 
L 894.581653 -164.532495 
L 894.587287 -166.295726 
L 894.497716 -168.058957 
L 894.345724 -169.822187 
L 894.208779 -171.585418 
L 894.163788 -173.348648 
L 894.233583 -175.111879 
L 894.371023 -176.87511 
L 894.497098 -178.63834 
L 894.560225 -180.401571 
L 894.567139 -182.164802 
L 894.5651 -183.928032 
L 894.596848 -185.691263 
L 894.667032 -187.454494 
L 894.74289 -189.217724 
L 894.781711 -190.980955 
L 894.761171 -192.744185 
L 894.694213 -194.507416 
L 894.622614 -196.270647 
L 894.592712 -198.033877 
L 894.626814 -199.797108 
L 894.710159 -201.560339 
L 894.802604 -203.323569 
L 894.862899 -205.0868 
L 894.866617 -206.85003 
L 894.812333 -208.613261 
L 894.721885 -210.376492 
L 894.6354 -212.139722 
L 894.595216 -213.902953 
L 894.622211 -215.666184 
L 894.702278 -217.429414 
L 894.795582 -219.192645 
L 894.859812 -220.955876 
L 894.868681 -222.719106 
L 894.818757 -224.482337 
L 894.729998 -226.245567 
L 894.64146 -228.008798 
L 894.596326 -229.772029 
L 894.6186 -231.535259 
L 894.698729 -233.29849 
L 894.802328 -235.061721 
L 894.894253 -236.824951 
L 894.956788 -238.588182 
L 895.069879 -238.588182 
L 895.069879 -238.588182 
L 895.132414 -236.824951 
L 895.224338 -235.061721 
L 895.327937 -233.29849 
L 895.408067 -231.535259 
L 895.430341 -229.772029 
L 895.385206 -228.008798 
L 895.296668 -226.245567 
L 895.20791 -224.482337 
L 895.157986 -222.719106 
L 895.166855 -220.955876 
L 895.231084 -219.192645 
L 895.324389 -217.429414 
L 895.404456 -215.666184 
L 895.431451 -213.902953 
L 895.391266 -212.139722 
L 895.304782 -210.376492 
L 895.214333 -208.613261 
L 895.16005 -206.85003 
L 895.163768 -205.0868 
L 895.224062 -203.323569 
L 895.316508 -201.560339 
L 895.399852 -199.797108 
L 895.433954 -198.033877 
L 895.404053 -196.270647 
L 895.332454 -194.507416 
L 895.265496 -192.744185 
L 895.244956 -190.980955 
L 895.283776 -189.217724 
L 895.359635 -187.454494 
L 895.429819 -185.691263 
L 895.461567 -183.928032 
L 895.459528 -182.164802 
L 895.466441 -180.401571 
L 895.529569 -178.63834 
L 895.655644 -176.87511 
L 895.793084 -175.111879 
L 895.862879 -173.348648 
L 895.817888 -171.585418 
L 895.680943 -169.822187 
L 895.528951 -168.058957 
L 895.43938 -166.295726 
L 895.445013 -164.532495 
L 895.527366 -162.769265 
L 895.644444 -161.006034 
L 895.768137 -159.242803 
L 895.908556 -157.479573 
L 896.116136 -155.716342 
L 896.462457 -153.953112 
L 897.00375 -152.189881 
L 897.739698 -150.42665 
L 898.596297 -148.66342 
L 899.460681 -146.900189 
L 900.260735 -145.136958 
L 901.036928 -143.373728 
L 901.944048 -141.610497 
L 903.167343 -139.847266 
L 904.806744 -138.084036 
L 906.810065 -136.320805 
L 908.997015 -134.557575 
L 911.154852 -132.794344 
L 913.156746 -131.031113 
L 915.05933 -129.267883 
L 917.142764 -127.504652 
L 919.847087 -125.741421 
L 923.572941 -123.978191 
L 928.404415 -122.21496 
L 933.929662 -120.45173 
L 939.345995 -118.688499 
L 943.871345 -116.925268 
L 947.234405 -115.162038 
L 949.887109 -113.398807 
L 952.743783 -111.635576 
L 956.631544 -109.872346 
L 961.892451 -108.109115 
L 968.412184 -106.345885 
L 975.906215 -104.582654 
L 984.073858 -102.819423 
L 992.496573 -101.056193 
L 1000.559277 -99.292962 
L 1007.66492 -97.529731 
L 1013.588002 -95.766501 
L 1018.555331 -94.00327 
L 1022.928352 -92.240039 
L 1026.817037 -90.476809 
L 1029.989991 -88.713578 
L 1032.06089 -86.950348 
L 1032.634667 -85.187117 
L 1031.202905 -83.423886 
L 1026.928597 -81.660656 
L 1018.689131 -79.897425 
L 1005.602792 -78.134194 
L 987.815107 -76.370964 
L 966.959627 -74.607733 
L 945.82219 -72.844503 
L 927.298517 -71.081272 
L 913.277314 -69.318041 
L 904.128795 -67.554811 
L 898.996389 -65.79158 
L 896.527283 -64.028349 
z
" style="stroke: #484848; stroke-width: 3"/>
    </defs>
    <g clip-path="url(#p76c0f88900)">
     <use xlink:href="#mc109930098" x="0" y="288" style="fill: #59a257; stroke: #484848; stroke-width: 3"/>
    </g>
   </g>
   <g id="line2d_10">
    <path d="M 206.906667 237.161842 
L 206.906667 159.728108 
" clip-path="url(#p76c0f88900)" style="fill: none; stroke: #484848; stroke-width: 4.5; stroke-linecap: round"/>
   </g>
   <g id="line2d_11">
    <path d="M 206.906667 205.196315 
L 206.906667 183.151124 
" clip-path="url(#p76c0f88900)" style="fill: none; stroke: #484848; stroke-width: 13.5; stroke-linecap: round"/>
   </g>
   <g id="line2d_12">
    <path d="M 206.906667 183.151124 
" clip-path="url(#p76c0f88900)" style="fill: none; stroke: #484848; stroke-width: 1.5; stroke-linecap: round"/>
    <defs>
     <path id="m702f793b43" d="M 5.625 0 
L -5.625 -0 
" style="stroke: #ffffff; stroke-width: 2.7"/>
    </defs>
    <g clip-path="url(#p76c0f88900)">
     <use xlink:href="#m702f793b43" x="206.906667" y="183.151124" style="fill: #ffffff; stroke: #ffffff; stroke-width: 2.7"/>
    </g>
   </g>
   <g id="line2d_13">
    <path d="M 550.96 234.309751 
L 550.96 143.84907 
" clip-path="url(#p76c0f88900)" style="fill: none; stroke: #484848; stroke-width: 4.5; stroke-linecap: round"/>
   </g>
   <g id="line2d_14">
    <path d="M 550.96 206.144338 
L 550.96 180.961144 
" clip-path="url(#p76c0f88900)" style="fill: none; stroke: #484848; stroke-width: 13.5; stroke-linecap: round"/>
   </g>
   <g id="line2d_15">
    <path d="M 550.96 189.576447 
" clip-path="url(#p76c0f88900)" style="fill: none; stroke: #484848; stroke-width: 1.5; stroke-linecap: round"/>
    <g clip-path="url(#p76c0f88900)">
     <use xlink:href="#m702f793b43" x="550.96" y="189.576447" style="fill: #ffffff; stroke: #ffffff; stroke-width: 2.7"/>
    </g>
   </g>
   <g id="line2d_16">
    <path d="M 895.013333 215.485311 
L 895.013333 150.266708 
" clip-path="url(#p76c0f88900)" style="fill: none; stroke: #484848; stroke-width: 4.5; stroke-linecap: round"/>
   </g>
   <g id="line2d_17">
    <path d="M 895.013333 204.214946 
L 895.013333 182.622396 
" clip-path="url(#p76c0f88900)" style="fill: none; stroke: #484848; stroke-width: 13.5; stroke-linecap: round"/>
   </g>
   <g id="line2d_18">
    <path d="M 895.013333 194.635647 
" clip-path="url(#p76c0f88900)" style="fill: none; stroke: #484848; stroke-width: 1.5; stroke-linecap: round"/>
    <g clip-path="url(#p76c0f88900)">
     <use xlink:href="#m702f793b43" x="895.013333" y="194.635647" style="fill: #ffffff; stroke: #ffffff; stroke-width: 2.7"/>
    </g>
   </g>
   <g id="patch_3">
    <path d="M 34.88 255.46 
L 34.88 39.6 
" style="fill: none; stroke: #262626; stroke-width: 1.25; stroke-linejoin: miter; stroke-linecap: square"/>
   </g>
   <g id="patch_4">
    <path d="M 1067.04 255.46 
L 1067.04 39.6 
" style="fill: none; stroke: #262626; stroke-width: 1.25; stroke-linejoin: miter; stroke-linecap: square"/>
   </g>
   <g id="patch_5">
    <path d="M 34.88 255.46 
L 1067.04 255.46 
" style="fill: none; stroke: #262626; stroke-width: 1.25; stroke-linejoin: miter; stroke-linecap: square"/>
   </g>
   <g id="patch_6">
    <path d="M 34.88 39.6 
L 1067.04 39.6 
" style="fill: none; stroke: #262626; stroke-width: 1.25; stroke-linejoin: miter; stroke-linecap: square"/>
   </g>
  </g>
  <g id="text_10">
   <!-- Violin Plot of all Continuous Variables -->
   <g style="fill: #262626" transform="translate(416.035547 16.496719) scale(0.15 -0.15)">
    <defs>
     <path id="ArialMT-56" d="M 1803 0 
L 28 4581 
L 684 4581 
L 1875 1253 
Q 2019 853 2116 503 
Q 2222 878 2363 1253 
L 3600 4581 
L 4219 4581 
L 2425 0 
L 1803 0 
z
" transform="scale(0.015625)"/>
     <path id="ArialMT-6f" d="M 213 1659 
Q 213 2581 725 3025 
Q 1153 3394 1769 3394 
Q 2453 3394 2887 2945 
Q 3322 2497 3322 1706 
Q 3322 1066 3130 698 
Q 2938 331 2570 128 
Q 2203 -75 1769 -75 
Q 1072 -75 642 372 
Q 213 819 213 1659 
z
M 791 1659 
Q 791 1022 1069 705 
Q 1347 388 1769 388 
Q 2188 388 2466 706 
Q 2744 1025 2744 1678 
Q 2744 2294 2464 2611 
Q 2184 2928 1769 2928 
Q 1347 2928 1069 2612 
Q 791 2297 791 1659 
z
" transform="scale(0.015625)"/>
     <path id="ArialMT-6c" d="M 409 0 
L 409 4581 
L 972 4581 
L 972 0 
L 409 0 
z
" transform="scale(0.015625)"/>
     <path id="ArialMT-20" transform="scale(0.015625)"/>
     <path id="ArialMT-66" d="M 556 0 
L 556 2881 
L 59 2881 
L 59 3319 
L 556 3319 
L 556 3672 
Q 556 4006 616 4169 
Q 697 4388 901 4523 
Q 1106 4659 1475 4659 
Q 1713 4659 2000 4603 
L 1916 4113 
Q 1741 4144 1584 4144 
Q 1328 4144 1222 4034 
Q 1116 3925 1116 3625 
L 1116 3319 
L 1763 3319 
L 1763 2881 
L 1116 2881 
L 1116 0 
L 556 0 
z
" transform="scale(0.015625)"/>
     <path id="ArialMT-61" d="M 2588 409 
Q 2275 144 1986 34 
Q 1697 -75 1366 -75 
Q 819 -75 525 192 
Q 231 459 231 875 
Q 231 1119 342 1320 
Q 453 1522 633 1644 
Q 813 1766 1038 1828 
Q 1203 1872 1538 1913 
Q 2219 1994 2541 2106 
Q 2544 2222 2544 2253 
Q 2544 2597 2384 2738 
Q 2169 2928 1744 2928 
Q 1347 2928 1158 2789 
Q 969 2650 878 2297 
L 328 2372 
Q 403 2725 575 2942 
Q 747 3159 1072 3276 
Q 1397 3394 1825 3394 
Q 2250 3394 2515 3294 
Q 2781 3194 2906 3042 
Q 3031 2891 3081 2659 
Q 3109 2516 3109 2141 
L 3109 1391 
Q 3109 606 3145 398 
Q 3181 191 3288 0 
L 2700 0 
Q 2613 175 2588 409 
z
M 2541 1666 
Q 2234 1541 1622 1453 
Q 1275 1403 1131 1340 
Q 988 1278 909 1158 
Q 831 1038 831 891 
Q 831 666 1001 516 
Q 1172 366 1500 366 
Q 1825 366 2078 508 
Q 2331 650 2450 897 
Q 2541 1088 2541 1459 
L 2541 1666 
z
" transform="scale(0.015625)"/>
     <path id="ArialMT-43" d="M 3763 1606 
L 4369 1453 
Q 4178 706 3683 314 
Q 3188 -78 2472 -78 
Q 1731 -78 1267 223 
Q 803 525 561 1097 
Q 319 1669 319 2325 
Q 319 3041 592 3573 
Q 866 4106 1370 4382 
Q 1875 4659 2481 4659 
Q 3169 4659 3637 4309 
Q 4106 3959 4291 3325 
L 3694 3184 
Q 3534 3684 3231 3912 
Q 2928 4141 2469 4141 
Q 1941 4141 1586 3887 
Q 1231 3634 1087 3207 
Q 944 2781 944 2328 
Q 944 1744 1114 1308 
Q 1284 872 1643 656 
Q 2003 441 2422 441 
Q 2931 441 3284 734 
Q 3638 1028 3763 1606 
z
" transform="scale(0.015625)"/>
     <path id="ArialMT-75" d="M 2597 0 
L 2597 488 
Q 2209 -75 1544 -75 
Q 1250 -75 995 37 
Q 741 150 617 320 
Q 494 491 444 738 
Q 409 903 409 1263 
L 409 3319 
L 972 3319 
L 972 1478 
Q 972 1038 1006 884 
Q 1059 663 1231 536 
Q 1403 409 1656 409 
Q 1909 409 2131 539 
Q 2353 669 2445 892 
Q 2538 1116 2538 1541 
L 2538 3319 
L 3100 3319 
L 3100 0 
L 2597 0 
z
" transform="scale(0.015625)"/>
     <path id="ArialMT-62" d="M 941 0 
L 419 0 
L 419 4581 
L 981 4581 
L 981 2947 
Q 1338 3394 1891 3394 
Q 2197 3394 2470 3270 
Q 2744 3147 2920 2923 
Q 3097 2700 3197 2384 
Q 3297 2069 3297 1709 
Q 3297 856 2875 390 
Q 2453 -75 1863 -75 
Q 1275 -75 941 416 
L 941 0 
z
M 934 1684 
Q 934 1088 1097 822 
Q 1363 388 1816 388 
Q 2184 388 2453 708 
Q 2722 1028 2722 1663 
Q 2722 2313 2464 2622 
Q 2206 2931 1841 2931 
Q 1472 2931 1203 2611 
Q 934 2291 934 1684 
z
" transform="scale(0.015625)"/>
    </defs>
    <use xlink:href="#ArialMT-56"/>
    <use xlink:href="#ArialMT-69" x="64.949219"/>
    <use xlink:href="#ArialMT-6f" x="87.166016"/>
    <use xlink:href="#ArialMT-6c" x="142.78125"/>
    <use xlink:href="#ArialMT-69" x="164.998047"/>
    <use xlink:href="#ArialMT-6e" x="187.214844"/>
    <use xlink:href="#ArialMT-20" x="242.830078"/>
    <use xlink:href="#ArialMT-50" x="270.613281"/>
    <use xlink:href="#ArialMT-6c" x="337.3125"/>
    <use xlink:href="#ArialMT-6f" x="359.529297"/>
    <use xlink:href="#ArialMT-74" x="415.144531"/>
    <use xlink:href="#ArialMT-20" x="442.927734"/>
    <use xlink:href="#ArialMT-6f" x="470.710938"/>
    <use xlink:href="#ArialMT-66" x="526.326172"/>
    <use xlink:href="#ArialMT-20" x="554.109375"/>
    <use xlink:href="#ArialMT-61" x="581.892578"/>
    <use xlink:href="#ArialMT-6c" x="637.507812"/>
    <use xlink:href="#ArialMT-6c" x="659.724609"/>
    <use xlink:href="#ArialMT-20" x="681.941406"/>
    <use xlink:href="#ArialMT-43" x="709.724609"/>
    <use xlink:href="#ArialMT-6f" x="781.941406"/>
    <use xlink:href="#ArialMT-6e" x="837.556641"/>
    <use xlink:href="#ArialMT-74" x="893.171875"/>
    <use xlink:href="#ArialMT-69" x="920.955078"/>
    <use xlink:href="#ArialMT-6e" x="943.171875"/>
    <use xlink:href="#ArialMT-75" x="998.787109"/>
    <use xlink:href="#ArialMT-6f" x="1054.402344"/>
    <use xlink:href="#ArialMT-75" x="1110.017578"/>
    <use xlink:href="#ArialMT-73" x="1165.632812"/>
    <use xlink:href="#ArialMT-20" x="1215.632812"/>
    <use xlink:href="#ArialMT-56" x="1243.416016"/>
    <use xlink:href="#ArialMT-61" x="1302.740234"/>
    <use xlink:href="#ArialMT-72" x="1358.355469"/>
    <use xlink:href="#ArialMT-69" x="1391.65625"/>
    <use xlink:href="#ArialMT-61" x="1413.873047"/>
    <use xlink:href="#ArialMT-62" x="1469.488281"/>
    <use xlink:href="#ArialMT-6c" x="1525.103516"/>
    <use xlink:href="#ArialMT-65" x="1547.320312"/>
    <use xlink:href="#ArialMT-73" x="1602.935547"/>
   </g>
  </g>
 </g>
 <defs>
  <clipPath id="p76c0f88900">
   <rect x="34.88" y="39.6" width="1032.16" height="215.86"/>
  </clipPath>
 </defs>
</svg>
